<svg width="160" height="160" viewBox="0 0 160 160" fill="none" xmlns="http://www.w3.org/2000/svg">
<g clip-path="url(#clip0_302_2)">
<path d="M20 20C14.6957 20 9.60859 22.1071 5.85786 25.8579C2.10714 29.6086 0 34.6957 0 40L0 120.1C0.0264352 125.387 2.14524 130.448 5.8931 134.178C9.64097 137.907 14.713 140 20 140H75C76.3261 140 77.5979 139.473 78.5355 138.536C79.4732 137.598 80 136.326 80 135C80 133.674 79.4732 132.402 78.5355 131.464C77.5979 130.527 76.3261 130 75 130H20C17.7988 130 15.659 129.274 13.9124 127.934C12.1658 126.595 10.9101 124.716 10.34 122.59L66.74 87.88L80 95.83L150 53.83V85C150 86.3261 150.527 87.5979 151.464 88.5355C152.402 89.4732 153.674 90 155 90C156.326 90 157.598 89.4732 158.536 88.5355C159.473 87.5979 160 86.3261 160 85V40C160 34.6957 157.893 29.6086 154.142 25.8579C150.391 22.1071 145.304 20 140 20H20ZM57.08 82.08L10 111.05V53.83L57.08 82.08ZM10 42.17V40C10 37.3478 11.0536 34.8043 12.9289 32.9289C14.8043 31.0536 17.3478 30 20 30H140C142.652 30 145.196 31.0536 147.071 32.9289C148.946 34.8043 150 37.3478 150 40V42.17L80 84.17L10 42.17Z" fill="#FF0000"/>
<path d="M160 125C160 134.283 156.313 143.185 149.749 149.749C143.185 156.313 134.283 160 125 160C115.717 160 106.815 156.313 100.251 149.749C93.6875 143.185 90 134.283 90 125C90 115.717 93.6875 106.815 100.251 100.251C106.815 93.6875 115.717 90 125 90C134.283 90 143.185 93.6875 149.749 100.251C156.313 106.815 160 115.717 160 125ZM111.46 111.46C110.994 111.924 110.625 112.476 110.373 113.084C110.121 113.691 109.991 114.342 109.991 115C109.991 115.658 110.121 116.309 110.373 116.916C110.625 117.524 110.994 118.076 111.46 118.54L117.93 125L111.46 131.46C110.521 132.399 109.994 133.672 109.994 135C109.994 136.328 110.521 137.601 111.46 138.54C112.399 139.479 113.672 140.006 115 140.006C116.328 140.006 117.601 139.479 118.54 138.54L125 132.07L131.46 138.54C132.399 139.479 133.672 140.006 135 140.006C136.328 140.006 137.601 139.479 138.54 138.54C139.479 137.601 140.006 136.328 140.006 135C140.006 133.672 139.479 132.399 138.54 131.46L132.07 125L138.54 118.54C139.479 117.601 140.006 116.328 140.006 115C140.006 113.672 139.479 112.399 138.54 111.46C137.601 110.521 136.328 109.994 135 109.994C133.672 109.994 132.399 110.521 131.46 111.46L125 117.93L118.54 111.46C118.076 110.994 117.524 110.625 116.916 110.373C116.309 110.121 115.658 109.991 115 109.991C114.342 109.991 113.691 110.121 113.084 110.373C112.476 110.625 111.924 110.994 111.46 111.46Z" fill="#FF0000"/>
</g>
<defs>
<clipPath id="clip0_302_2">
<rect width="160" height="160" fill="white"/>
</clipPath>
</defs>
</svg>
