<svg xmlns="http://www.w3.org/2000/svg" viewBox="0 0 75.1 75.28"><g id="Capa_2" data-name="Capa 2"><g id="Capa_1-2" data-name="Capa 1"><path d="M75.1,37.59A37.55,37.55,0,1,1,37.66,0,37.68,37.68,0,0,1,75.1,37.59ZM46.94,68.2l.57-.19A33.5,33.5,0,0,0,63.82,55.16a30.77,30.77,0,0,0,4.63-24.44A30.3,30.3,0,0,0,57.51,13,30.7,30.7,0,0,0,29.58,7,30.53,30.53,0,0,0,10.47,21.19,30.87,30.87,0,0,0,6.2,41.91,30.74,30.74,0,0,0,12.61,57a33.49,33.49,0,0,0,15.3,11c.18.07.37.12.61.2v-.82c0-2.09,0-4.19.07-6.28a6.85,6.85,0,0,1,2.68-5.27.9.9,0,0,0,.16-.17l-.26,0a28.77,28.77,0,0,1-7-1.57,13.61,13.61,0,0,1-8.15-7.81,22,22,0,0,1-1.39-6.85,14.56,14.56,0,0,1,3.46-11.13.57.57,0,0,0,.1-.49,13.67,13.67,0,0,1,.34-9c.11-.3.29-.45.58-.41a19.92,19.92,0,0,1,2.79.38,21.8,21.8,0,0,1,6.37,3.16.85.85,0,0,0,.77.13,34,34,0,0,1,17.2,0,1.12,1.12,0,0,0,1-.18,24.11,24.11,0,0,1,5.19-2.75,9.07,9.07,0,0,1,3.78-.73c.25,0,.47,0,.58.33a13.24,13.24,0,0,1,.38,9,.63.63,0,0,0,.16.69,13,13,0,0,1,3.14,6.37,21.86,21.86,0,0,1-.66,10.13,13.31,13.31,0,0,1-5.92,7.86A18.73,18.73,0,0,1,48,55c-1.31.26-2.62.46-3.85.67.41.45.9.91,1.3,1.43a7.24,7.24,0,0,1,1.49,4.38c0,1.95,0,3.9,0,5.85Z"/></g></g></svg>