<?xml version="1.0" encoding="utf-8"?>
<!-- Generator: Adobe Illustrator 25.4.1, SVG Export Plug-In . SVG Version: 6.00 Build 0)  -->
<svg version="1.1" id="Capa_1" xmlns="http://www.w3.org/2000/svg" xmlns:xlink="http://www.w3.org/1999/xlink" x="0px" y="0px"
	 viewBox="0 0 639.2 639.2" style="enable-background:new 0 0 639.2 639.2;" xml:space="preserve">
<style type="text/css">
	.st0{fill:#333132;}
</style>
<g>
	<path class="st0" d="M319.6,639.2c-85.4,0-165.6-33.2-226-93.6C33.2,485.2,0,404.9,0,319.6c0-85.4,33.2-165.6,93.6-226
		C154,33.2,234.2,0,319.6,0c85.4,0,165.6,33.2,226,93.6c60.4,60.4,93.6,140.6,93.6,226c0,85.4-33.2,165.6-93.6,226
		C485.2,605.9,404.9,639.2,319.6,639.2z M319.6,27c-75,0-149.9,28.5-207,85.6c-55.3,55.3-85.7,128.8-85.7,207
		c0,78.2,30.5,151.7,85.7,207c55.3,55.3,128.8,85.7,207,85.7c78.2,0,151.7-30.5,207-85.7c114.1-114.1,114.1-299.9,0-414
		C469.5,55.5,394.5,27,319.6,27z"/>
	<path class="st0" d="M488.7,214.7c-10.6,4.8-22.3,7.7-33.8,9.6c5.4-0.9,13.4-10.8,16.6-14.7c5-6,8.8-13,11.2-20.4
		c0.3-0.6,0.5-1.3-0.1-1.8c-0.6-0.2-1.3-0.2-1.8,0.1c-12.6,6.8-26.1,11.9-40,15.3c-1,0.3-2.1,0-2.8-0.7c-1.1-1.3-2.2-2.5-3.5-3.6
		c-5.8-5-12.3-9-19.4-11.9c-9.4-3.8-19.6-5.5-29.7-4.8c-9.9,0.7-19.5,3.4-28.2,8c-8.8,4.6-16.5,10.9-22.8,18.6
		c-6.5,8-11.1,17.3-13.6,27.2c-2.4,9.6-2.1,19.1-0.7,28.8c0.2,1.6,0.1,1.8-1.4,1.6c-55-8.2-100.6-27.9-137.6-70
		c-1.6-1.8-2.5-1.8-3.8,0.1c-16.2,24.3-8.3,63.3,11.9,82.4c2.7,2.6,5.5,5.1,8.4,7.4c-1.1,0.2-14.6-1.2-26.5-7.4
		c-1.6-1-2.4-0.4-2.6,1.4c-0.1,2.6,0,5.3,0.4,7.9c3.1,24.6,20.1,47.4,43.5,56.2c2.8,1.2,5.8,2.1,8.8,2.7c-5.3,1.2-10.8,2-26,0.8
		c-1.9-0.4-2.6,0.6-1.9,2.4c11.5,31.2,36.2,40.5,54.7,45.8c2.5,0.4,5,0.4,7.4,1c-0.1,0.2-0.3,0.2-0.4,0.4
		c-6.1,9.4-27.4,16.3-37.4,19.8c-18,6.3-37.7,9.1-56.7,7.3c-3.1-0.5-3.7-0.4-4.5,0s-0.1,1.2,0.9,2c3.9,2.5,7.8,4.8,11.8,7
		c12,6.4,24.8,11.5,37.9,15.2c68.2,18.8,145,5,196.1-45.9c40.2-39.9,54.3-95,54.3-150.1c0-2.2,2.5-3.4,4.1-4.5
		c10.5-7.9,18.9-17.2,26.7-27.8c1.2-1.5,1.8-3.4,1.8-5.3v-0.3C490.1,213.8,490.1,214.1,488.7,214.7z"/>
</g>
</svg>
