<svg width="128" height="128" viewBox="0 0 128 128" fill="none" xmlns="http://www.w3.org/2000/svg">
<g clip-path="url(#clip0_251_23)">
<path d="M16 16C11.7565 16 7.68687 17.6857 4.68629 20.6863C1.68571 23.6869 0 27.7565 0 32L0 96.08C0.0211482 100.31 1.71619 104.359 4.71448 107.342C7.71278 110.325 11.7704 112 16 112H60C61.0609 112 62.0783 111.579 62.8284 110.828C63.5786 110.078 64 109.061 64 108C64 106.939 63.5786 105.922 62.8284 105.172C62.0783 104.421 61.0609 104 60 104H16C14.239 104 12.5272 103.419 11.1299 102.348C9.73266 101.276 8.7281 99.7729 8.272 98.072L53.392 70.304L64 76.664L120 43.064V68C120 69.0609 120.421 70.0783 121.172 70.8284C121.922 71.5786 122.939 72 124 72C125.061 72 126.078 71.5786 126.828 70.8284C127.579 70.0783 128 69.0609 128 68V32C128 27.7565 126.314 23.6869 123.314 20.6863C120.313 17.6857 116.243 16 112 16H16ZM45.664 65.664L8 88.84V43.064L45.664 65.664ZM8 33.736V32C8 29.8783 8.84285 27.8434 10.3431 26.3431C11.8434 24.8429 13.8783 24 16 24H112C114.122 24 116.157 24.8429 117.657 26.3431C119.157 27.8434 120 29.8783 120 32V33.736L64 67.336L8 33.736Z" fill="#005C04"/>
<path d="M128 100C128 107.426 125.05 114.548 119.799 119.799C114.548 125.05 107.426 128 100 128C92.5739 128 85.452 125.05 80.201 119.799C74.95 114.548 72 107.426 72 100C72 92.5739 74.95 85.452 80.201 80.201C85.452 74.95 92.5739 72 100 72C107.426 72 114.548 74.95 119.799 80.201C125.05 85.452 128 92.5739 128 100ZM112.056 86.568C111.605 86.2979 111.106 86.1193 110.586 86.0422C110.066 85.9652 109.537 85.9913 109.027 86.1191C108.517 86.2469 108.038 86.4738 107.616 86.7869C107.194 87.1001 106.838 87.4932 106.568 87.944L97.208 103.544L92.832 99.168C92.0809 98.4169 91.0622 97.9949 90 97.9949C88.9378 97.9949 87.9191 98.4169 87.168 99.168C86.4169 99.9191 85.9949 100.938 85.9949 102C85.9949 103.062 86.4169 104.081 87.168 104.832L93.36 111.016C94.0045 111.662 94.7878 112.152 95.6502 112.45C96.5127 112.747 97.4317 112.844 98.3372 112.733C99.2428 112.622 100.111 112.306 100.876 111.809C101.641 111.311 102.283 110.646 102.752 109.864L113.432 92.056C113.702 91.6053 113.881 91.1059 113.958 90.5861C114.035 90.0664 114.009 89.5366 113.881 89.0269C113.753 88.5173 113.526 88.0378 113.213 87.6159C112.9 87.194 112.507 86.8379 112.056 86.568Z" fill="#005C04"/>
</g>
<defs>
<clipPath id="clip0_251_23">
<rect width="128" height="128" fill="white"/>
</clipPath>
</defs>
</svg>
