<?xml version="1.0" encoding="utf-8"?>
<!-- Generator: Adobe Illustrator 25.4.1, SVG Export Plug-In . SVG Version: 6.00 Build 0)  -->
<svg version="1.1" id="Capa_1" xmlns="http://www.w3.org/2000/svg" xmlns:xlink="http://www.w3.org/1999/xlink" x="0px" y="0px"
	 viewBox="0 0 636.6 636.6" style="enable-background:new 0 0 636.6 636.6;" xml:space="preserve">
<style type="text/css">
	.st0{fill:#333132;}
</style>
<path class="st0" d="M543.4,93.2C483.2,33.1,403.3,0,318.3,0c-85,0-164.9,33.1-225.1,93.2C33.1,153.3,0,233.3,0,318.3
	s33.1,164.9,93.2,225.1c60.1,60.1,140.1,93.2,225.1,93.2c85,0,165-33.1,225.1-93.2c60.1-60.1,93.2-140,93.2-225.1
	S603.5,153.3,543.4,93.2z M366.1,605.8v-199h71.3l13.5-88.5h-84.9v-57.4c0-24.2,11.9-47.8,49.9-47.8h38.6v-75.3c0,0-35-6-68.5-6
	c-69.9,0-115.6,42.4-115.6,119.1v67.5h-77.8v88.5h77.7v199c-138-22.9-243.6-143.1-243.6-287.5c0-160.7,130.8-291.5,291.4-291.5
	c160.7,0,291.5,130.7,291.5,291.5C609.8,462.7,504.2,582.9,366.1,605.8z"/>
</svg>
