<?xml version="1.0" encoding="utf-8"?>
<!-- Generator: Adobe Illustrator 25.4.1, SVG Export Plug-In . SVG Version: 6.00 Build 0)  -->
<svg version="1.1" id="Capa_1" xmlns="http://www.w3.org/2000/svg" xmlns:xlink="http://www.w3.org/1999/xlink" x="0px" y="0px"
	 viewBox="0 0 639.2 639.2" style="enable-background:new 0 0 639.2 639.2;" xml:space="preserve">
<style type="text/css">
	.st0{fill:#333132;}
</style>
<path class="st0" d="M191.2,262.6h59.3V453h-59.3V262.6z M220.8,167.9c19,0,34.3,15.4,34.3,34.4s-15.4,34.3-34.4,34.3
	c-19,0-34.3-15.4-34.3-34.4C186.5,183.3,201.9,167.9,220.8,167.9C220.8,167.9,220.8,167.9,220.8,167.9L220.8,167.9z"/>
<path class="st0" d="M319.6,639.2c-85.4,0-165.6-33.2-226-93.6C33.2,485.2,0,404.9,0,319.6c0-85.4,33.2-165.6,93.6-226
	C154,33.2,234.2,0,319.6,0c85.4,0,165.6,33.2,226,93.6c60.4,60.4,93.6,140.6,93.6,226c0,85.4-33.2,165.6-93.6,226
	C485.2,605.9,404.9,639.2,319.6,639.2z M319.6,27c-75,0-149.9,28.5-207,85.6c-55.3,55.3-85.7,128.8-85.7,207
	c0,78.2,30.5,151.7,85.7,207c55.3,55.3,128.8,85.7,207,85.7c78.2,0,151.7-30.5,207-85.7c114.1-114.1,114.1-299.9,0-414
	C469.5,55.5,394.5,27,319.6,27z"/>
<path class="st0" d="M287.6,262.6h56.8v26.1h0.8c7.9-15,27.2-30.8,56.1-30.8c60,0,71,39.4,71,90.7V453h-59.2v-92.6
	c0-22.1-0.4-50.5-30.8-50.5c-30.8,0-35.5,24.1-35.5,48.9v94.2h-59.2V262.6z"/>
</svg>
